<!-- Brand mark "JS." — spruce plate, Geist 600 outlines, gold
     check-as-period (reads "JS." at 16px, "JS ✓" at 32px+).
     Generated from Geist via satori; signed off 2026-07-06 (issue #11). -->
<svg
	width="128"
	height="128"
	viewBox="0 0 128 128"
	xmlns="http://www.w3.org/2000/svg"
>
	<path
		x="0"
		y="0"
		width="128"
		height="128"
		fill="#1a7a52"
		d="M28,0 h72 a28,28 0 0 1 28,28 v72 a28,28 0 0 1 -28,28 h-72 a28,28 0 0 1 -28,-28 v-72 a28,28 0 0 1 28,-28"
	/>
	<g>
		<path
			fill="#fbfcfb"
			d="M27.5 87.0L27.5 87.0Q22.5 87.0 18.9 84.9Q15.4 82.7 13.5 78.9Q11.6 75.1 11.5 70.3L11.5 70.3L19.9 69.8Q20.0 74.8 22.0 77.3Q23.9 79.8 27.5 79.8L27.5 79.8Q31.0 79.8 33.0 77.3Q35.0 74.7 35.0 69.8L35.0 69.8L35.0 40.6L43.3 40.6L43.3 69.8Q43.3 75.1 41.3 78.9Q39.4 82.8 35.8 84.9Q32.3 87.0 27.5 87.0ZM67.8 87.0L67.8 87.0Q62.2 87.0 58.1 85.0Q54.0 83.1 51.7 79.5Q49.3 76.0 49.0 71.2L49.0 71.2L57.4 70.7Q57.8 73.6 59.1 75.7Q60.4 77.7 62.6 78.8Q64.8 79.9 68.0 79.9L68.0 79.9Q70.7 79.9 72.5 79.2Q74.4 78.5 75.4 77.2Q76.4 75.9 76.4 74.0L76.4 74.0Q76.4 72.2 75.6 70.9Q74.8 69.5 72.4 68.4Q70.0 67.2 65.3 66.2L65.3 66.2Q59.7 64.9 56.3 63.2Q52.9 61.6 51.4 59.2Q49.9 56.7 49.9 53.0L49.9 53.0Q49.9 49.0 51.8 46.0Q53.8 42.9 57.5 41.2Q61.1 39.5 66.2 39.5L66.2 39.5Q71.7 39.5 75.5 41.5Q79.2 43.4 81.4 46.8Q83.6 50.2 84.1 54.6L84.1 54.6L75.7 55.0Q75.4 52.5 74.2 50.7Q73.0 48.8 71.0 47.8Q69.0 46.7 66.1 46.7L66.1 46.7Q62.5 46.7 60.4 48.3Q58.4 50.0 58.4 52.7L58.4 52.7Q58.4 54.5 59.2 55.7Q60.1 56.9 62.3 57.8Q64.6 58.7 68.6 59.6L68.6 59.6Q74.7 60.9 78.3 62.9Q81.9 64.9 83.4 67.5Q84.9 70.1 84.9 73.5L84.9 73.5Q84.9 77.7 82.8 80.7Q80.7 83.8 76.9 85.4Q73.0 87.0 67.8 87.0Z "
		/>
	</g>
	<path
		d="M95 82 L100 87 L109 75"
		stroke="#d9a944"
		stroke-width="7"
		stroke-linecap="round"
		stroke-linejoin="round"
		fill="none"
	/>
</svg>
